<svg width="28" height="28" viewBox="0 0 28 28" fill="none" xmlns="http://www.w3.org/2000/svg">
<rect x="0.291544" y="0.291666" width="27.4166" height="27.4166" rx="0.291666" stroke="black" stroke-width="0.583333"/>
<path d="M8.60199 13.6895L10.6024 9.6886C10.8583 9.17699 11.5883 9.17699 11.8441 9.6886L13.8446 13.6895C13.9423 13.8849 13.9423 14.1149 13.8446 14.3104L11.8441 18.3113C11.5883 18.8229 10.8583 18.8229 10.6024 18.3113L8.60199 14.3104C8.50428 14.1149 8.50428 13.8849 8.60199 13.6895Z" stroke="black" stroke-width="0.69413" stroke-linecap="round"/>
<path d="M14.1551 13.6895L16.1555 9.6886C16.4114 9.17699 17.1414 9.17699 17.3972 9.6886L19.3977 13.6895C19.4954 13.8849 19.4954 14.1149 19.3977 14.3104L17.3972 18.3113C17.1414 18.8229 16.4114 18.8229 16.1555 18.3113L14.1551 14.3104C14.0574 14.1149 14.0574 13.8849 14.1551 13.6895Z" stroke="black" stroke-width="0.69413" stroke-linecap="round"/>
<path d="M11.3787 19.2426L13.3791 15.2417C13.6349 14.7301 14.365 14.7301 14.6208 15.2417L16.6213 19.2426C16.719 19.438 16.719 19.668 16.6213 19.8635L14.6208 23.8644C14.365 24.376 13.6349 24.376 13.3791 23.8644L11.3787 19.8635C11.281 19.668 11.281 19.438 11.3787 19.2426Z" fill="black"/>
<path d="M11.3787 8.13666L13.3791 4.13574C13.6349 3.62413 14.365 3.62413 14.6208 4.13574L16.6213 8.13666C16.719 8.33207 16.719 8.56209 16.6213 8.75751L14.6208 12.7584C14.365 13.27 13.6349 13.27 13.3791 12.7584L11.3787 8.7575C11.281 8.56209 11.281 8.33207 11.3787 8.13666Z" stroke="black" stroke-width="0.69413" stroke-linecap="round"/>
<path d="M19.553 14V22.3296" stroke="black" stroke-width="0.69413" stroke-linecap="round"/>
<path d="M8.44678 14V22.3296" stroke="black" stroke-width="0.69413" stroke-linecap="round"/>
<circle cx="16.7764" cy="14" r="0.69413" fill="black"/>
</svg>
